<svg xmlns="http://www.w3.org/2000/svg" viewBox="0 0 512 512">
  <defs>
    <radialGradient id="bg" cx="32%" cy="20%" r="82%">
      <stop offset="0" stop-color="#60a5fa"/>
      <stop offset="0.42" stop-color="#312e81"/>
      <stop offset="1" stop-color="#020617"/>
    </radialGradient>
    <linearGradient id="key" x1="130" y1="336" x2="392" y2="456">
      <stop stop-color="#0f172a"/>
      <stop offset="1" stop-color="#7c3aed"/>
    </linearGradient>
  </defs>
  <rect width="512" height="512" rx="112" fill="url(#bg)"/>
  <g fill="#fff" opacity=".9">
    <circle cx="118" cy="96" r="4"/>
    <circle cx="184" cy="72" r="3"/>
    <circle cx="374" cy="112" r="5"/>
    <circle cx="414" cy="208" r="3"/>
    <circle cx="88" cy="248" r="3"/>
    <circle cx="274" cy="58" r="2"/>
  </g>
  <path d="M104 176c72-44 141-57 206-39 33 9 65 25 98 47-76-17-144-15-205 5-38 13-72 31-99 55z" fill="#c4b5fd" opacity=".2"/>
  <rect x="92" y="106" width="328" height="178" rx="34" fill="#020617" opacity=".48" stroke="#bfdbfe" stroke-opacity=".32"/>
  <text x="382" y="228" fill="#fff" font-family="Arial, sans-serif" font-size="92" font-weight="200" text-anchor="end">42</text>
  <g fill="url(#key)">
    <circle cx="144" cy="352" r="44"/>
    <circle cx="256" cy="352" r="44"/>
    <circle cx="368" cy="352" r="44"/>
    <rect x="100" y="410" width="200" height="76" rx="38"/>
    <circle cx="368" cy="448" r="44"/>
  </g>
  <g fill="#fff" font-family="Arial, sans-serif" font-size="38" font-weight="300" text-anchor="middle">
    <text x="144" y="365">sin</text>
    <text x="256" y="365">π</text>
    <text x="368" y="365">÷</text>
    <text x="200" y="463">0</text>
    <text x="368" y="463">=</text>
  </g>
</svg>
